<?xml version="1.0" standalone="no"?><!DOCTYPE svg PUBLIC "-//W3C//DTD SVG 1.1//EN" "http://www.w3.org/Graphics/SVG/1.1/DTD/svg11.dtd"><svg class="icon" width="100px" height="100.00px" viewBox="0 0 1024 1024" version="1.1" xmlns="http://www.w3.org/2000/svg"><path fill="#0dabcc" d="M512 981.333333C251.733333 981.333333 42.666667 772.266667 42.666667 512S251.733333 42.666667 512 42.666667s469.333333 209.066667 469.333333 469.333333-209.066667 469.333333-469.333333 469.333333z m0-853.333333c-213.333333 0-384 170.666667-384 384s170.666667 384 384 384 384-170.666667 384-384-170.666667-384-384-384zM512 554.666667c-25.6 0-42.666667-17.066667-42.666667-42.666667V341.333333c0-25.6 17.066667-42.666667 42.666667-42.666666s42.666667 17.066667 42.666667 42.666666v170.666667c0 25.6-17.066667 42.666667-42.666667 42.666667zM512 725.333333c-4.266667 0-12.8 0-17.066667-4.266666-4.266667 0-8.533333-4.266667-12.8-8.533334-8.533333-8.533333-12.8-17.066667-12.8-29.866666 0-4.266667 0-12.8 4.266667-17.066667 4.266667-4.266667 4.266667-8.533333 8.533333-12.8 4.266667-4.266667 8.533333-8.533333 12.8-8.533333 8.533333-4.266667 21.333333-4.266667 34.133334 0 4.266667 0 8.533333 4.266667 12.8 8.533333 4.266667 4.266667 8.533333 8.533333 8.533333 12.8s4.266667 12.8 4.266667 17.066667c0 12.8-4.266667 21.333333-12.8 29.866666-8.533333 8.533333-17.066667 12.8-29.866667 12.8z" /></svg>