<?xml version="1.0" standalone="no"?><!DOCTYPE svg PUBLIC "-//W3C//DTD SVG 1.1//EN" "http://www.w3.org/Graphics/SVG/1.1/DTD/svg11.dtd"><svg class="icon" width="100px" height="93.86px" viewBox="0 0 1091 1024" version="1.1" xmlns="http://www.w3.org/2000/svg"><path fill="#707070" d="M479.950834 716.779651c261.341528-0.049631 451.641358-155.300107 452.495011-369.18455 0-194.915506-203.695216-347.595101-463.741377-347.595101C210.296128 0 0.06452 155.93042 0.06452 347.595101c0 101.137886 46.007861 243.509139 175.65871 311.870766l24.934574 13.177008-43.481648 193.357096 213.909259-155.890715 29.852997 2.11924a466.163365 466.163365 0 0 0 67.498049 4.714937c6.620765 0 9.812033-0.074446 11.479632-0.178671zM203.74981 602.966029c-104.929688-55.308696-142.162803-172.134915-142.162803-255.361002 0-75.195805 42.017536-146.18787 118.30522-199.888524 77.166152-54.301188 179.738371-84.243521 288.812241-84.243521 107.753687 0 209.08017 29.907591 285.318225 84.208779 75.379439 53.685765 116.895702 124.653015 116.895702 199.799189-0.699796 177.217121-165.543929 305.850535-391.960179 305.875351h-0.650165q-5.528884 0.193561-11.052806 0.188597a407.856962 407.856962 0 0 1-59.358578-4.372484l-57.105335-4.10944s-87.469531 71.612452-102.62185 84.437082c1.985237-11.564004 16.874512-94.139926 16.874512-94.139926z m0 0L1091.091076 595.620653c0-88.248736-28.98942-144.922282-100.060895-195.664933l-6.188976-4.412189-35.034465 52.196837 6.188975 4.412189c61.850051 44.136776 73.572874 84.486713 73.572874 143.497875 0 77.13141-35.515885 130.261309-115.089137 172.219287l-57.219486 29.371577s10.154486 69.061423 11.17192 85.806895c-27.560049-28.289624-56.842291-77.389491-56.842291-77.389491l-62.445622 9.926184c-11.539189 1.712267-44.727384 2.149019-56.524653 2.173834-99.495102 0-172.323512-22.994005-236.138947-74.560529l-5.925932-4.789383-37.932911 49.948556 5.925932 4.789384c74.366968 60.053411 161.46923 88.045249 274.116526 88.045249a642.943734 642.943734 0 0 0 65.607111-2.868667l22.522511-3.593279c14.983574 20.537274 167.256195 149.195504 167.256195 149.195505s-25.510292-144.986802-27.584864-188.269927l21.753231-11.15703c101.584564-53.601392 148.892756-126.350392 148.892756-228.902759z m-12.32832-254.303863a59.378431 59.378431 0 0 0 16.378203 40.816467 54.757792 54.757792 0 0 0 79.146425 0 59.011162 59.011162 0 0 0 0-81.632935 54.757792 54.757792 0 0 0-79.146425 0 59.373468 59.373468 0 0 0-16.378203 40.816468z m223.200166 0a59.378431 59.378431 0 0 0 16.378203 40.816467 54.762755 54.762755 0 0 0 79.146426 0 59.035978 59.035978 0 0 0 0-81.632935 54.762755 54.762755 0 0 0-79.146426 0 59.368505 59.368505 0 0 0-16.378203 40.816468z m217.348682 0a59.373468 59.373468 0 0 0 16.378203 40.816467 54.757792 54.757792 0 0 0 79.141463 0 59.011162 59.011162 0 0 0 0-81.632935 54.757792 54.757792 0 0 0-79.141463 0 59.363542 59.363542 0 0 0-16.378203 40.816468z m0 0" /></svg>