<?xml version="1.0" standalone="no"?><!DOCTYPE svg PUBLIC "-//W3C//DTD SVG 1.1//EN" "http://www.w3.org/Graphics/SVG/1.1/DTD/svg11.dtd"><svg t="1556708311590" class="icon" style="" viewBox="0 0 1024 1024" version="1.1" xmlns="http://www.w3.org/2000/svg" p-id="1738" xmlns:xlink="http://www.w3.org/1999/xlink" width="200" height="200"><defs><style type="text/css"></style></defs><path d="M512 1024c-281.6 0-512-230.4-512-512s230.4-512 512-512 512 230.4 512 512-230.4 512-512 512zM512 32C249.6 32 32 249.6 32 512s211.2 480 480 480 480-211.2 480-480S774.4 32 512 32z m243.2 742.4c-6.4 0-12.8 0-12.8-6.4L512 537.6l-236.8 217.6c-12.8 12.8-19.2 12.8-32 0-6.4-6.4-6.4-19.2 0-25.6L486.4 512 256 281.6c-6.4-6.4-6.4-19.2 0-25.6 6.4-6.4 19.2-6.4 25.6 0L512 486.4l236.8-217.6c12.8-12.8 19.2-12.8 32 0 6.4 6.4 6.4 19.2 0 25.6L537.6 512l230.4 230.4c6.4 6.4 6.4 19.2 0 25.6-6.4 6.4-6.4 6.4-12.8 6.4z" fill="#ffffff" p-id="1739"></path></svg>