<?xml version="1.0" standalone="no"?><!DOCTYPE svg PUBLIC "-//W3C//DTD SVG 1.1//EN" "http://www.w3.org/Graphics/SVG/1.1/DTD/svg11.dtd"><svg class="icon" width="100px" height="100.00px" viewBox="0 0 1024 1024" version="1.1" xmlns="http://www.w3.org/2000/svg"><path fill="#707070" d="M102.0928 1015.620267a98.474667 98.474667 0 0 1-69.43744-28.214614A97.232213 97.232213 0 0 1 3.413333 918.357333V106.25024C3.413333 52.514133 46.728533 8.830293 100.461227 8.383147h691.923626c53.87264 0 97.706667 43.380053 98.27328 97.25952V179.541333h31.259307a98.225493 98.225493 0 0 1 69.440853 28.228267A97.286827 97.286827 0 0 1 1020.586667 276.794027v641.56672c-0.32768 53.82144-44.05248 97.25952-97.846614 97.25952H102.0928z m20.292267-940.639574c-28.931413 0.006827-52.374187 23.4496-52.374187 52.38784V896.853333c0.109227 28.84608 23.524693 52.159147 52.374187 52.159147h778.001066c28.934827 0.238933 52.57216-23.033173 52.800854-51.961173V297.908907c-0.334507-28.607147-23.57248-51.6608-52.186454-51.766614h-7.099733l-3.04128 6.700374v580.051626c-0.068267 18.49344-15.09376 33.460907-33.600853 33.41312-18.425173-0.06144-33.358507-14.98112-33.406294-33.41312V127.163733c-0.334507-28.951893-23.83872-52.278613-52.7872-52.384426l-648.680106 0.201386z m64.361813 769.471147a32.761173 32.761173 0 0 1-23.145813-9.332053 33.49504 33.49504 0 0 1-9.95328-23.354027c0.443733-18.240853 15.250773-32.88064 33.50528-33.078613h519.348906c18.16576-0.232107 33.071787 14.30528 33.293654 32.488106v0.19456c-0.218453 18.29888-15.0016 33.092267-33.293654 33.314134l-519.755093-0.232107z m0-149.623467c-18.336427 1.447253-34.348373-12.253867-35.792213-30.58688-1.42336-18.333013 12.274347-34.36544 30.610773-35.792213a32.109227 32.109227 0 0 1 5.188267 0h519.35232c18.333013 1.426773 32.034133 17.4592 30.593706 35.792213a33.303893 33.303893 0 0 1-30.593706 30.58688H186.74688z m0-149.62688c-18.336427 1.440427-34.348373-12.26752-35.792213-30.60736-1.42336-18.326187 12.274347-34.351787 30.610773-35.792213a33.75104 33.75104 0 0 1 5.188267 0h519.35232c18.333013 1.440427 32.034133 17.466027 30.593706 35.792213a33.31072 33.31072 0 0 1-30.593706 30.60736H186.74688z m0-256.83968c-18.19648 0-32.989867-14.6944-33.099093-32.887466a33.71008 33.71008 0 0 1 33.71008-33.09568h216.02304a32.98304 32.98304 0 0 1 32.989866 32.996693 32.979627 32.979627 0 0 1-32.989866 32.986453H186.74688z" /></svg>