<?xml version="1.0" standalone="no"?><!DOCTYPE svg PUBLIC "-//W3C//DTD SVG 1.1//EN" "http://www.w3.org/Graphics/SVG/1.1/DTD/svg11.dtd"><svg class="icon" width="100px" height="100.00px" viewBox="0 0 1024 1024" version="1.1" xmlns="http://www.w3.org/2000/svg"><path fill="#707070" d="M504.149333 629.76c-11.605333 0-28.330667 21.845333-28.330666 55.978667 0 34.133333 16.725333 55.978667 28.330666 55.978666s28.330667-21.845333 28.330667-55.978666c0-34.133333-16.725333-55.978667-28.330667-55.978667z"  /><path fill="#707070" d="M1004.885333 396.970667c-5.461333-16.384-19.456-28.330667-36.181333-30.72l-287.402667-41.642667-128.682666-260.437333c-7.850667-15.36-23.552-25.258667-40.618667-25.258667s-32.768 9.557333-40.277333 25.258667l-128.682667 260.437333-287.402667 41.642667c-17.066667 2.389333-31.061333 14.336-36.181333 30.72-5.12 16.384-1.024 34.133333 11.264 46.08L238.933333 645.802667l-49.152 286.378666c-2.730667 16.725333 4.096 33.792 17.749334 44.032 13.994667 10.24 32.085333 11.264 47.445333 3.413334L512 844.458667l257.024 135.168a44.714667 44.714667 0 0 0 47.104-3.413334c13.994667-10.24 20.821333-27.306667 17.749333-44.032l-49.152-286.378666 208.213334-202.752c12.629333-11.946667 17.066667-29.696 11.946666-46.08zM348.16 561.493333c-7.850667 0-16.042667-3.754667-21.162667-10.581333a26.180267 26.180267 0 0 1 5.12-36.864l45.397334-34.474667-44.714667-32.085333a26.3168 26.3168 0 0 1-6.144-36.864c8.533333-11.946667 24.917333-14.677333 36.864-6.144l73.728 53.248c6.826667 4.778667 10.922667 12.629333 10.922667 21.162667s-3.754667 16.384-10.581334 21.504l-73.728 55.978666c-4.778667 3.413333-10.24 5.12-15.701333 5.12z m155.989333 233.130667c-45.397333 0-81.237333-47.786667-81.237333-108.885333s35.84-108.885333 81.237333-108.885334c45.397333 0 81.237333 47.786667 81.237334 108.885334s-35.498667 108.885333-81.237334 108.885333z m230.741334-295.936c-10.922667 9.557333-27.648 8.874667-37.205334-2.048-16.384-18.432-31.744-27.306667-49.152-27.306667-25.6 0.682667-46.08 25.6-46.421333 25.941334a26.862933 26.862933 0 0 1-37.205333 4.778666 26.2144 26.2144 0 0 1-4.437334-37.205333c3.413333-4.437333 36.181333-44.714667 86.357334-46.08 32.085333-0.682667 62.805333 13.994667 90.112 45.056 9.898667 10.581333 8.874667 27.306667-2.048 36.864z"  /></svg>